<?xml version="1.0" encoding="UTF-8"?>
<!-- Generator: Adobe Illustrator 15.0.0, SVG Export Plug-In . SVG Version: 6.00 Build 0)  -->
<!DOCTYPE svg PUBLIC "-//W3C//DTD SVG 1.1//EN" "http://www.w3.org/Graphics/SVG/1.1/DTD/svg11.dtd">
<svg version="1.1" id="svelte" xmlns="http://www.w3.org/2000/svg" xmlns:xlink="http://www.w3.org/1999/xlink" x="0px" y="0px" width="109.928px" height="131.986px" viewBox="0 0 109.928 131.986" enable-background="new 0 0 109.928 131.986" xml:space="preserve">
<path id="back" fill="#159497" d="M102.81,17.469C90.546-0.101,66.373-5.289,48.803,5.913L18.144,25.488  C9.772,30.794,3.994,39.284,2.225,49.072C0.81,57.208,1.989,65.581,5.881,72.891c-2.594,4.01-4.481,8.49-5.307,13.207  c-1.769,9.905,0.59,20.164,6.485,28.419c12.264,17.569,36.437,22.758,54.007,11.556l30.777-19.574  c8.372-5.307,14.15-13.797,15.919-23.584c1.415-8.137,0.118-16.509-3.655-23.82c2.594-4.009,4.481-8.49,5.306-13.207  C111.064,35.982,108.706,25.842,102.81,17.469"/>
<path id="front" fill="#FFFFFF" d="M45.855,116.286c-9.905,2.594-20.4-1.297-26.178-9.67c-3.538-4.952-4.953-11.084-3.892-17.098  c0.118-0.943,0.472-1.887,0.708-2.83l0.59-1.769l1.533,1.179c3.656,2.595,7.665,4.717,12.028,6.014l1.179,0.354l-0.118,1.179  c-0.118,1.651,0.354,3.184,1.297,4.48c1.769,2.477,4.953,3.656,7.9,2.948c0.708-0.235,1.297-0.472,1.887-0.825l30.659-19.574  c1.533-0.943,2.594-2.477,2.83-4.245c0.354-1.77-0.118-3.656-1.179-5.188c-1.769-2.477-4.953-3.656-7.9-2.948  c-0.708,0.235-1.297,0.472-1.887,0.825L53.52,76.546c-1.887,1.18-4.009,2.123-6.25,2.713c-9.905,2.594-20.4-1.298-26.178-9.67  c-3.538-4.952-4.953-11.084-3.773-17.098c1.061-5.896,4.481-11.084,9.551-14.268l30.895-19.692c1.887-1.179,4.009-2.123,6.25-2.712  c9.905-2.594,20.4,1.297,26.178,9.669c3.538,4.953,4.953,11.084,3.891,17.098c-0.236,0.943-0.472,1.887-0.708,2.83l-0.589,1.769  l-1.533-1.179c-3.655-2.712-7.665-4.717-12.028-6.014l-1.179-0.354l0.118-1.179c0.118-1.651-0.354-3.302-1.297-4.599  c-1.769-2.476-4.952-3.655-7.9-2.83c-0.708,0.236-1.297,0.472-1.887,0.826L36.304,51.548c-1.533,0.943-2.594,2.477-2.948,4.245  c-0.354,1.769,0.118,3.656,1.179,5.188c1.769,2.476,4.834,3.656,7.9,2.948c0.708-0.235,1.297-0.472,1.887-0.825l11.792-7.429  c1.887-1.179,4.009-2.123,6.25-2.712c9.905-2.594,20.4,1.297,26.178,9.669c3.538,4.952,4.953,11.084,3.891,17.099  c-1.061,5.896-4.481,11.084-9.551,14.268l-30.777,19.575C50.218,114.752,48.096,115.696,45.855,116.286"/>
</svg>