<svg xmlns="http://www.w3.org/2000/svg" viewBox="0 0 93.2 111.96"><defs><style>.cls-1{fill:#ff3e00;}.cls-2{fill:#fff;}</style></defs><title>Asset 1</title><g id="Layer_2" data-name="Layer 2"><g id="svelte"><path id="back" class="cls-1" d="M87.25,14.81C76.85-.07,56.31-4.48,41.46,5L15.38,21.6a29.94,29.94,0,0,0-13.52,20A31.61,31.61,0,0,0,5,61.84,30,30,0,0,0,.49,73,31.88,31.88,0,0,0,5.94,97.14C16.34,112,36.88,116.43,51.73,107L77.81,90.42a30,30,0,0,0,13.52-20,31.46,31.46,0,0,0-3.11-20.23A30,30,0,0,0,92.7,39a31.89,31.89,0,0,0-5.45-24.12"/><path id="front" class="cls-2" d="M38.91,98.58a20.72,20.72,0,0,1-22.24-8.25,19.2,19.2,0,0,1-3.27-14.5A18.53,18.53,0,0,1,14,73.42l.49-1.5,1.34,1A33.75,33.75,0,0,0,26,78l1,.29-.09,1A5.93,5.93,0,0,0,28,83.12a6.25,6.25,0,0,0,6.7,2.48,5.45,5.45,0,0,0,1.6-.7l26-16.62a5.35,5.35,0,0,0,2.45-3.64,5.77,5.77,0,0,0-1-4.37,6.27,6.27,0,0,0-6.7-2.48,6,6,0,0,0-1.6.7l-10,6.35a18.93,18.93,0,0,1-5.29,2.32A20.73,20.73,0,0,1,18,58.92a19.16,19.16,0,0,1-3.25-14.5A18.06,18.06,0,0,1,22.9,32.36L49,15.74a19.48,19.48,0,0,1,5.26-2.32,20.71,20.71,0,0,1,22.23,8.25,19.1,19.1,0,0,1,3.28,14.5,18,18,0,0,1-.62,2.43l-.5,1.5-1.33-1A33.78,33.78,0,0,0,67.14,34l-1-.29.09-1a5.85,5.85,0,0,0-1.06-3.88,6.22,6.22,0,0,0-6.66-2.41,6,6,0,0,0-1.6.7L30.82,43.71a5.51,5.51,0,0,0-2.45,3.63,5.87,5.87,0,0,0,1,4.38A6.24,6.24,0,0,0,36,54.2a5.72,5.72,0,0,0,1.6-.7l10-6.34a18.86,18.86,0,0,1,5.3-2.33,20.69,20.69,0,0,1,22.23,8.24,19.14,19.14,0,0,1,3.28,14.5A18,18,0,0,1,70.3,79.63L44.21,96.25a18.89,18.89,0,0,1-5.3,2.33"/></g></g></svg>